<?xml version="1.0" encoding="UTF-8" standalone="no"?>
<!-- Created with Inkscape (http://www.inkscape.org/) -->

<svg
   version="1.1"
   id="svg25"
   xml:space="preserve"
   width="395.65332"
   height="175.67999"
   viewBox="0 0 395.65332 175.67999"
   sodipodi:docname="HNP_MEEG_short.svg"
   inkscape:version="1.1.2 (0a00cf5339, 2022-02-04)"
   xmlns:inkscape="http://www.inkscape.org/namespaces/inkscape"
   xmlns:sodipodi="http://sodipodi.sourceforge.net/DTD/sodipodi-0.dtd"
   xmlns="http://www.w3.org/2000/svg"
   xmlns:svg="http://www.w3.org/2000/svg"><defs
     id="defs29" /><sodipodi:namedview
     id="namedview27"
     pagecolor="#ffffff"
     bordercolor="#666666"
     borderopacity="1.0"
     inkscape:pageshadow="2"
     inkscape:pageopacity="0.0"
     inkscape:pagecheckerboard="0"
     showgrid="false"
     inkscape:zoom="1.526589"
     inkscape:cx="125.77059"
     inkscape:cy="7.2056068"
     inkscape:window-width="1920"
     inkscape:window-height="1163"
     inkscape:window-x="0"
     inkscape:window-y="0"
     inkscape:window-maximized="1"
     inkscape:current-layer="g31" /><g
     id="g31"
     inkscape:groupmode="layer"
     inkscape:label="ink_ext_XXXXXX"
     transform="matrix(1.3333333,0,0,-1.3333333,0,175.68)"><g
       id="g33"
       transform="scale(0.1)"><path
         d="m 875.453,151.559 c -23.945,0.621 -48.043,3.742 -71.445,9.461 13.582,-1.649 27.215,-2.469 40.73,-2.469 6.934,0 13.836,0.219 20.696,0.648 3.265,-2.597 6.609,-5.148 10.019,-7.64 m 33.317,0.761 c -3.832,2.36 -7.59,4.758 -11.262,7.219 -1.332,0.902 -2.656,1.801 -3.969,2.699 11.996,1.864 23.742,4.422 35.102,7.692 6.332,-4.301 12.89,-8.41 19.668,-12.328 -12.914,-2.551 -26.141,-4.313 -39.539,-5.282 m 67.281,12.129 c -8.383,4.211 -16.465,8.672 -24.188,13.371 0.282,0.11 0.559,0.219 0.836,0.328 10.227,2.332 20.176,5.192 29.75,8.563 6.918,-4.332 14.098,-8.402 21.511,-12.242 -8.999,-3.809 -18.327,-7.149 -27.909,-10.02 m 49.889,20.621 c -7.31,3.379 -14.38,6.961 -21.19,10.758 1.71,0.801 3.4,1.621 5.07,2.461 5.97,3 11.72,6.231 17.22,9.68 6.01,-3.778 12.22,-7.328 18.63,-10.688 -6.29,-4.383 -12.88,-8.453 -19.73,-12.211 m -293.811,13.379 c -10.024,3.879 -19.789,8.301 -29.195,13.262 -6.668,3.519 -13.153,7.301 -19.426,11.359 -16.547,15.11 -30.985,32.711 -42.535,52.852 -4.039,-1.192 -8.051,-2.344 -12.035,-3.434 -4.157,5.352 -8.051,10.934 -11.665,16.742 8.36,2.188 16.872,4.622 25.536,7.29 0.941,0.289 1.902,0.429 2.843,0.429 3.489,0 6.786,-1.898 8.481,-5.129 20.738,-39.468 53.375,-68.961 92.18,-89.058 -4.618,-1.621 -9.352,-3.063 -14.184,-4.313 m 582.421,0.121 c -82.83,0.051 -159.37,16.18 -214.32,59.371 -3.3,-6.371 -7.03,-12.461 -11.15,-18.261 -5.59,3.269 -10.98,6.73 -16.15,10.41 6.01,8.351 11.06,17.32 15.01,26.89 v 0 c 1.19,2.872 3.69,4.989 6.73,5.688 0.71,0.16 1.43,0.242 2.14,0.242 2.33,0 4.61,-0.851 6.39,-2.441 49.81,-44.617 125.74,-62.707 211.03,-62.707 0.11,0 0.22,0 0.32,0 0.06,0 0.09,0 0.15,0 42.83,0 87.88,4.519 132.87,12.218 0.87,-6.199 1.69,-12.589 2.39,-19.058 -45.63,-7.774 -91.47,-12.344 -135.41,-12.352 m -252.15,11.77 c -6.31,3.058 -12.4,6.289 -18.29,9.73 5.94,4.739 11.47,9.809 16.55,15.192 5.24,-3.762 10.66,-7.321 16.26,-10.684 -4.54,-5 -9.39,-9.75 -14.52,-14.238 m 406.49,3.98 c -0.72,6.559 -1.56,12.942 -2.42,19.078 13.04,2.481 26.05,5.223 38.97,8.172 0.74,-6.449 1.25,-12.929 1.42,-19.359 -12.59,-2.84 -25.25,-5.481 -37.97,-7.891 m 57,12.371 c -0.29,6.508 -0.88,12.981 -1.65,19.348 13.01,3.211 25.9,6.621 38.62,10.211 -0.08,-6.969 -0.68,-13.809 -1.92,-20.449 -11.56,-3.192 -23.25,-6.231 -35.05,-9.11 m 55.29,14.879 c 0.61,5.45 0.88,10.91 0.88,16.36 0,1.3 -0.02,2.601 -0.05,3.898 10.97,3.293 21.78,6.703 32.4,10.211 0.52,0.18 1.04,0.352 1.56,0.52 -2.24,-8.028 -5.65,-15.77 -10.52,-23.2 -0.87,-0.41 -1.75,-0.808 -2.64,-1.211 -7.14,-2.238 -14.35,-4.437 -21.63,-6.578 M 500.371,253.879 c -1.09,0 -2.18,0.012 -3.262,0.019 -8.375,6.321 -16.363,13.071 -23.882,20.223 4.851,-0.383 9.781,-0.652 14.785,-0.832 5.926,-6.769 12.222,-13.219 18.836,-19.359 -2.067,-0.032 -4.121,-0.051 -6.164,-0.051 -0.11,0 -0.204,0 -0.313,0 m 34.317,1.43 c -7.129,5.671 -13.926,11.679 -20.344,18.011 4.219,0.149 8.492,0.371 12.804,0.66 5.04,-6.23 10.399,-12.191 16.036,-17.89 -2.852,-0.289 -5.68,-0.551 -8.496,-0.781 m -69.68,0.25 c -82.078,7.921 -145.403,43.211 -192.422,90.121 -10.555,10.511 -20.309,21.593 -29.309,33.074 17.911,-18.375 38.344,-35.008 61.59,-48.992 19.492,-11.739 40.953,-21.594 64.473,-29.051 22.246,-10.352 46.715,-18.211 73.664,-22.852 6.887,-7.828 14.242,-15.269 22.004,-22.3 m 102.726,3.691 c -6.05,5.379 -11.804,11.039 -17.218,16.969 4.168,0.519 8.371,1.101 12.629,1.742 4.214,-5.981 8.714,-11.742 13.468,-17.25 -2.976,-0.52 -5.937,-1 -8.879,-1.461 m 30.879,5.77 c -5.066,5.289 -9.855,10.832 -14.34,16.621 4.442,0.879 8.93,1.82 13.461,2.839 3.45,-5.929 7.157,-11.64 11.102,-17.14 -3.426,-0.809 -6.84,-1.59 -10.223,-2.32 m 1035.287,0.55 c 1.47,4.879 2.57,9.821 3.35,14.77 8.19,3.269 15.73,6.648 22.68,10.109 -2.38,-3.219 -5.05,-6.41 -8.05,-9.551 -5,-5.238 -10.95,-10.367 -17.98,-15.328 m 38.63,9.75 c 8.61,10.7 14.53,22.078 18.29,33.731 7.81,5.777 14.35,11.679 19.76,17.648 17.84,19.774 24.05,40.102 24.14,61.34 0.09,24.688 -9.11,50.551 -20.24,74.391 4.63,5.617 8.96,11.422 12.87,17.437 13.46,-27.14 26.46,-58.797 26.56,-91.828 0.08,-25.16 -8.07,-51.172 -29.13,-74.238 -12.65,-13.922 -29.73,-26.813 -52.25,-38.481 M 222.34,445.75 c -3.746,1.805 -7.426,3.668 -11.02,5.574 -11.425,18.629 -21.078,38.02 -29.152,57.52 -21.984,53.043 -32.125,106.871 -34.648,147.234 -0.008,1.082 -0.012,2.176 -0.012,3.277 -0.039,80.528 15.918,219.629 128.687,349.925 29.629,34.25 65.868,67.81 110.137,99.53 39.445,26.21 85.445,50.69 139.137,72.44 61.89,25.06 134.015,46.46 218.019,62.63 C 512.758,1185.28 374.004,1092.99 290.707,996.727 181.953,871.004 166.738,737.48 166.699,659.355 c 0,-9.132 0.211,-17.503 0.504,-25.023 1.492,-38.664 13.469,-99.957 41.203,-160.644 4.27,-9.352 8.91,-18.696 13.934,-27.938 m 1496.43,76.344 c 0.14,1.226 0.29,2.472 0.44,3.734 1.27,1.637 2.57,3.285 3.92,4.953 1.95,2.41 3.97,4.844 6.06,7.309 -0.03,-0.262 -0.06,-0.52 -0.09,-0.774 -0.21,-1.953 -0.48,-3.886 -0.82,-5.808 -3.17,-3.176 -6.35,-6.317 -9.51,-9.414 m 31.39,32.347 c 0.24,2.594 0.48,5.329 0.71,8.2 1.83,2.019 3.67,4.054 5.52,6.109 1.69,1.867 3.38,3.75 5.08,5.645 -1.4,-4.329 -3.1,-8.618 -5.05,-12.86 -2.06,-2.379 -4.15,-4.746 -6.26,-7.094 m 52.28,37.961 c 2.59,4.508 4.99,9.098 7.16,13.758 7.12,15.246 11.86,31.379 12.83,48.246 0.22,0.403 0.44,0.809 0.66,1.207 11.09,20.446 17.92,41.188 17.91,61.907 0,2.929 -0.13,5.867 -0.41,8.808 -3.1,32.735 -11.55,121.414 -54.05,219.477 -42.53,98.045 -118.69,205.025 -257.86,275.265 -92.81,46.81 -213.89,77.35 -372.34,77.36 -31.88,0 -65.27,-1.24 -100.25,-3.83 -20.6,-0.3 -41.75,-1.02 -63.465,-2.19 -66.184,-3.56 -127.301,-9.68 -183.762,-18 -4.707,0.44 -9.386,0.86 -14.035,1.25 56.594,12.28 118.082,22.63 184.863,30.72 63.329,7.67 122.099,11.24 176.649,11.24 v 0 c 0.12,0 0.22,0 0.34,0 241.1,0 400.03,-70.09 504.03,-163.03 104.08,-92.96 152.97,-208.07 176.59,-297.074 15.75,-59.328 20.3,-107.309 22.39,-129.375 0.34,-3.555 0.5,-7.098 0.5,-10.621 -0.07,-37.551 -18.22,-72.153 -40.89,-103.411 -5.4,-7.41 -11.07,-14.648 -16.86,-21.707 m -16.97,8.989 c 0.01,0.211 0.02,0.422 0.03,0.632 0.36,0.434 0.72,0.868 1.07,1.301 -0.36,-0.644 -0.73,-1.289 -1.1,-1.933"
         style="fill:#eaf3ef;fill-opacity:1;fill-rule:nonzero;stroke:none"
         id="path35" /><path
         d="m 844.738,158.551 c -13.515,0 -27.148,0.82 -40.73,2.469 -8.895,1.082 -17.766,2.519 -26.574,4.308 9.082,-0.758 18.148,-1.137 27.148,-1.148 16.996,0.011 33.766,1.359 49.984,4.101 3.524,-3.09 7.149,-6.121 10.868,-9.082 -6.86,-0.429 -13.762,-0.648 -20.696,-0.648 m 48.801,3.687 c -5.234,3.621 -10.297,7.352 -15.164,11.192 10.777,2.871 21.219,6.41 31.199,10.64 6.086,-4.929 12.453,-9.648 19.067,-14.14 -11.36,-3.27 -23.106,-5.828 -35.102,-7.692 m 402.081,13.66 c -52.39,0 -102.82,5.442 -147.81,18.481 -25.62,7.43 -49.51,17.351 -70.89,30.199 -5.6,3.363 -11.02,6.922 -16.26,10.684 -6.39,4.609 -12.51,9.519 -18.33,14.758 -4.24,-6.981 -9.02,-13.551 -14.28,-19.719 -5.31,3.699 -10.41,7.59 -15.27,11.66 7.33,8.488 13.57,17.777 18.56,27.879 1.38,2.789 4.02,4.73 7.09,5.219 0.51,0.082 1.01,0.121 1.51,0.121 2.56,0 5.04,-1.02 6.86,-2.879 7.94,-8.11 16.68,-15.5 26.13,-22.211 5.17,-3.68 10.56,-7.141 16.15,-10.41 19.15,-11.211 40.68,-20.078 64.07,-26.871 42.64,-12.368 91.36,-17.719 142.39,-17.719 0.03,0 0.06,0 0.08,0 0.03,0 0.06,0 0.09,0 50.45,0 103.14,5.219 154.46,13.84 0.65,-6.352 1.16,-12.782 1.44,-19.219 -51.67,-8.602 -104.77,-13.813 -155.99,-13.813 m -343.757,1.922 c -6.906,4.2 -13.535,8.61 -19.859,13.219 8.949,2.941 17.566,6.359 25.762,10.25 0.75,0.352 1.496,0.711 2.238,1.082 5.617,-4.383 11.473,-8.551 17.535,-12.519 -3.769,-2.071 -7.621,-4.043 -11.547,-5.903 -4.34,-2.058 -8.773,-3.988 -13.293,-5.801 -0.277,-0.109 -0.554,-0.218 -0.836,-0.328 m 518.797,15.219 c -0.33,6.52 -0.88,12.949 -1.54,19.231 12.73,2.359 25.34,4.91 37.79,7.64 0.01,-0.89 0.02,-1.769 0.02,-2.66 0,-5.809 -0.29,-11.551 -0.94,-17.18 -11.65,-2.5 -23.44,-4.851 -35.33,-7.031 m -752.027,2.422 c -22.367,6.367 -44.024,15.23 -64,26.519 -2.903,1.641 -5.766,3.329 -8.59,5.071 -13.887,11.847 -26.434,25.277 -37.207,40.289 -3.945,5.5 -7.652,11.211 -11.102,17.14 -2.582,4.43 -5.015,8.981 -7.296,13.649 -5.243,-1.168 -10.43,-2.27 -15.567,-3.277 -3.687,5.648 -7.098,11.507 -10.207,17.578 9.449,1.761 19.106,3.8 28.977,6.136 0.746,0.176 1.492,0.262 2.226,0.262 3.727,0 7.196,-2.18 8.762,-5.707 3.699,-8.359 7.93,-16.32 12.644,-23.891 3.614,-5.808 7.508,-11.39 11.665,-16.742 15.117,-19.457 33.675,-35.929 54.57,-49.418 6.273,-4.058 12.758,-7.84 19.426,-11.359 9.406,-4.961 19.171,-9.383 29.195,-13.262 -4.418,-1.148 -8.918,-2.14 -13.496,-2.988 m 277.039,5.648 c -6.016,3.653 -11.801,7.481 -17.348,11.5 7.492,4.762 14.489,9.981 20.91,15.68 4.926,-4.187 10.046,-8.18 15.356,-11.98 -5.91,-5.457 -12.23,-10.528 -18.918,-15.2 m 529.998,3.352 c 0.31,4.269 0.45,8.539 0.45,12.789 0,2.34 -0.05,4.672 -0.13,6.988 8.22,1.942 16.35,3.953 24.38,6.024 3.42,0.879 6.75,1.777 10,2.707 -0.87,-4.028 -1.98,-7.969 -3.37,-11.821 -1.25,-3.449 -2.7,-6.82 -4.41,-10.128 -8.86,-2.258 -17.84,-4.45 -26.92,-6.559 m 51.6,17.039 c 1.7,5.93 2.89,11.93 3.66,17.961 7.88,2.758 15.17,5.668 21.88,8.687 0.89,0.403 1.77,0.801 2.64,1.211 -3.23,-4.929 -7.11,-9.718 -11.72,-14.359 -4.65,-4.66 -10.1,-9.18 -16.46,-13.5 m 41.06,12.738 c 7.27,9.934 12.32,20.5 15.57,31.332 7.03,4.961 12.98,10.09 17.98,15.328 3,3.141 5.67,6.332 8.05,9.551 12.38,16.742 16.85,34.516 16.92,53.297 0.05,15.609 -3.31,31.797 -8.25,47.625 1.14,2.797 2.19,5.649 3.11,8.555 3.6,3.762 7.04,7.633 10.29,11.621 7.79,-21.16 13.99,-44.254 14.04,-67.801 0.05,-11.543 -1.54,-23.246 -5.22,-34.695 -3.76,-11.653 -9.68,-23.031 -18.29,-33.731 -2.1,-2.609 -4.36,-5.172 -6.78,-7.691 -11.82,-12.328 -27.36,-23.527 -47.42,-33.391 M 477.586,284.789 c -5.141,0 -10.207,0.09 -15.215,0.27 -6.035,6.472 -11.703,13.23 -16.953,20.261 6.406,-0.539 12.949,-0.929 19.629,-1.14 4.172,-6.7 8.683,-13.168 13.5,-19.391 -0.277,0 -0.563,0 -0.84,0 -0.043,0 -0.078,0 -0.121,0 m 25.234,0.723 c -5.238,5.949 -10.148,12.148 -14.703,18.597 5.891,0.153 11.879,0.422 17.973,0.832 3.558,-6.332 7.426,-12.453 11.562,-18.351 -5,-0.442 -9.945,-0.801 -14.832,-1.078 m -67.496,1.5 c -23.597,2.547 -45.566,7.226 -65.984,13.699 -23.52,7.457 -44.981,17.312 -64.473,29.051 -23.246,13.984 -43.679,30.617 -61.59,48.992 -6.058,6.219 -11.824,12.633 -17.316,19.215 16.578,-15.531 35.273,-29.571 56.285,-41.524 20.766,-11.82 43.781,-21.586 69.192,-28.773 20.777,-8.656 43.55,-15.242 68.515,-19.242 4.735,-7.41 9.871,-14.551 15.371,-21.418 m 104.379,2.019 c -4.453,5.707 -8.613,11.649 -12.441,17.809 5.789,0.648 11.664,1.41 17.629,2.289 2.937,-6.168 6.156,-12.149 9.629,-17.93 -4.993,-0.801 -9.93,-1.527 -14.817,-2.168 M 1651.93,448.434 c 3.99,7.418 9.47,14.757 15.99,22.316 -0.63,-3.578 -1.27,-7.055 -1.91,-10.402 -4.77,-4.047 -9.48,-8.016 -14.08,-11.914 m -1440.61,2.89 c -4.234,2.246 -8.367,4.563 -12.398,6.942 -16.109,22.781 -29.055,47.281 -39.332,72.265 -16.891,41.028 -26.465,83.282 -30.961,120.692 -0.637,8.836 -0.938,17.144 -0.949,24.808 0,2.594 0.035,5.114 0.101,7.563 v 0 c 1.434,51.824 9.543,144.531 62.262,242.492 42.547,79.164 114.324,161.524 234.215,228.234 29.203,14.68 61.316,28.29 96.656,40.54 69.672,24.13 151.879,42.89 248.856,53.83 -8.895,-1.55 -17.641,-3.15 -26.282,-4.81 -84.004,-16.17 -156.129,-37.57 -218.019,-62.63 -53.692,-21.75 -99.692,-46.23 -139.137,-72.44 -45.992,-30.56 -83.07,-63.49 -113.016,-97.16 C 162.156,886.582 148.844,750.285 146.965,683.063 v 0 c -0.063,-2.262 -0.094,-4.61 -0.094,-7.032 -0.004,-6.183 0.203,-12.859 0.649,-19.953 2.523,-40.363 12.664,-94.191 34.648,-147.234 8.074,-19.5 17.727,-38.891 29.152,-57.52 m 1477.63,28.844 c 0.76,4.852 1.51,9.863 2.22,15.039 1.73,1.715 3.49,3.441 5.26,5.18 -0.89,-5.867 -1.77,-11.153 -2.58,-15.801 -1.62,-1.481 -3.26,-2.957 -4.9,-4.418 m 27.81,26.562 c 0.68,4.817 1.36,9.942 2.01,15.364 3.16,3.097 6.34,6.238 9.51,9.414 -1.06,-6.031 -2.72,-11.93 -4.91,-17.707 -2.16,-2.375 -4.36,-4.735 -6.61,-7.071 m 32.83,41.84 c 0.19,1.868 0.38,3.825 0.57,5.871 2.11,2.348 4.2,4.715 6.26,7.094 -2.01,-4.363 -4.3,-8.683 -6.83,-12.965 m 23.08,2.438 c 7.31,15.14 12.04,31.351 12.73,48.531 0.02,0.598 0.05,1.215 0.07,1.852 0.37,0.644 0.74,1.289 1.1,1.933 10.52,18.703 16.86,37.848 16.85,57.461 l -0.03,2.535 v -0.007 c -0.94,33.949 -3.62,128.593 -43.83,233.574 -40.27,104.963 -117.56,219.813 -268.72,295.393 -100.22,50.06 -233.19,82.88 -409.91,83.28 -24.28,1.51 -49.39,2.46 -75.35,2.83 -10.92,0.16 -21.705,0.24 -32.357,0.24 -53.336,0 -103.375,-1.94 -150.332,-5.61 -4.703,0.48 -9.379,0.95 -14.028,1.39 56.461,8.32 117.578,14.44 183.762,18 21.715,1.17 42.865,1.89 63.465,2.19 7.27,0.1 14.48,0.15 21.61,0.16 0.12,0 0.21,0 0.32,0 270.75,0 443.81,-75.29 553.62,-175.13 109.88,-99.86 156.05,-223.454 175.74,-318.517 13.14,-63.375 14.55,-114.367 15.19,-137.265 v -0.004 c 0.03,-1.02 0.04,-2.039 0.04,-3.059 0,-2.137 -0.06,-4.265 -0.18,-6.379 -0.97,-16.867 -5.71,-33 -12.83,-48.246 -2.17,-4.66 -4.57,-9.25 -7.16,-13.758 -6.94,-12.097 -15.23,-23.66 -24.23,-34.738 -1.82,-2.238 -3.67,-4.457 -5.54,-6.656"
         style="fill:#cbe3d9;fill-opacity:1;fill-rule:nonzero;stroke:none"
         id="path37" /><path
         d="m 1286.46,149.82 c -62.54,0 -123.66,6.442 -177.48,22.301 -22.52,6.641 -43.79,14.938 -63.31,25.16 -6.41,3.36 -12.62,6.91 -18.63,10.688 -4.25,2.672 -8.41,5.453 -12.45,8.34 -5.31,3.8 -10.43,7.793 -15.356,11.98 -5.175,4.402 -10.129,9.031 -14.839,13.891 -5.25,-7.442 -11.141,-14.328 -17.586,-20.68 -4.996,4.121 -9.754,8.422 -14.262,12.891 8.668,8.398 16.144,17.828 22.234,28.3 1.567,2.688 4.332,4.45 7.434,4.731 0.289,0.027 0.578,0.039 0.863,0.039 2.793,0 5.461,-1.223 7.293,-3.359 6.774,-7.942 14.259,-15.313 22.409,-22.141 4.86,-4.07 9.96,-7.961 15.27,-11.66 5.15,-3.59 10.51,-7 16.06,-10.231 5.89,-3.441 11.98,-6.672 18.29,-9.73 16.09,-7.789 33.51,-14.371 52,-19.82 51.35,-15.149 110.76,-21.52 171.94,-21.508 0.04,0 0.08,0 0.12,0 0.01,0 0.02,0 0.04,0 55.2,0 111.84,5.16 165.33,13.519 0.01,-1.152 0.02,-2.301 0.02,-3.453 0,-5.398 -0.2,-10.769 -0.64,-16.058 -53.3,-8.18 -109.58,-13.2 -164.75,-13.2 m -481.878,14.36 c -9,0.011 -18.066,0.39 -27.148,1.148 -8.899,0.742 -17.809,1.844 -26.696,3.313 4.27,-0.18 8.524,-0.27 12.766,-0.27 27.441,0 54.176,3.707 78.75,11.438 3.953,-3.95 8.059,-7.789 12.312,-11.528 -16.218,-2.742 -32.988,-4.09 -49.984,-4.101 m 666.088,1.98 c 0.25,4.32 0.37,8.629 0.37,12.918 0,2.211 -0.03,4.41 -0.09,6.602 5.17,0.898 10.31,1.82 15.41,2.769 6.45,1.199 12.62,2.5 18.49,3.879 -0.94,-5.18 -2.21,-10.238 -3.88,-15.117 -0.69,-1.992 -1.43,-3.949 -2.24,-5.883 -2.9,-0.598 -5.85,-1.187 -8.86,-1.75 -6.34,-1.18 -12.74,-2.316 -19.2,-3.418 m -592.295,7.27 c -5.633,4.441 -11.016,9.031 -16.125,13.769 3.152,1.352 6.258,2.781 9.313,4.289 7.519,1.934 14.828,4.203 21.882,6.813 5.129,-4.93 10.516,-9.68 16.129,-14.231 -9.98,-4.23 -20.422,-7.769 -31.199,-10.64 m 642.595,3.468 c 1.94,6.864 3.25,13.84 4.07,20.864 9.28,2.828 17.7,5.918 25.33,9.207 -6.44,-10.957 -15.8,-21.059 -29.4,-30.071 m 42.51,14.922 c 4.94,7.301 8.76,14.969 11.58,22.84 0.82,2.262 1.55,4.551 2.21,6.84 6.36,4.32 11.81,8.84 16.46,13.5 4.61,4.641 8.49,9.43 11.72,14.359 4.87,7.43 8.28,15.172 10.52,23.2 2.48,8.902 3.54,18.152 3.58,27.711 0.01,8.91 -0.96,18.031 -2.59,27.156 5.79,4.629 11.36,9.461 16.62,14.531 3.09,-13.531 5.13,-27.559 5.16,-41.687 0.02,-6.622 -0.44,-13.29 -1.49,-19.93 -0.78,-4.949 -1.88,-9.891 -3.35,-14.77 -3.25,-10.832 -8.3,-21.398 -15.57,-31.332 -3.22,-4.41 -6.89,-8.687 -11.03,-12.808 -11.17,-11.149 -25.56,-21.11 -43.82,-29.61 m -858.64,1.571 c -33.039,6.531 -65.637,18.449 -94.746,35.371 -12.137,9.578 -23.383,20.238 -33.481,31.949 -4.754,5.508 -9.254,11.269 -13.468,17.25 -3.028,4.301 -5.903,8.711 -8.625,13.238 -3.473,5.781 -6.692,11.762 -9.629,17.93 -1.758,3.691 -3.422,7.449 -4.977,11.273 -6.422,-0.984 -12.746,-1.859 -18.992,-2.617 -3.18,5.918 -6.067,12.028 -8.637,18.317 10.457,1.152 21.195,2.636 32.215,4.468 0.535,0.09 1.066,0.133 1.59,0.133 3.976,0 7.605,-2.473 9.004,-6.32 2.758,-7.594 5.961,-14.91 9.57,-21.953 3.109,-6.071 6.52,-11.93 10.207,-17.578 2.961,-4.543 6.098,-8.942 9.402,-13.211 4.485,-5.789 9.274,-11.332 14.34,-16.621 13.922,-14.54 29.938,-27.211 47.43,-37.969 2.824,-1.742 5.687,-3.43 8.59,-5.071 19.976,-11.289 41.633,-20.152 64,-26.519 -4.528,-0.832 -9.125,-1.52 -13.793,-2.07 m 223.969,0.007 c -5.633,4.231 -11.012,8.641 -16.125,13.211 9,4.481 17.421,9.602 25.175,15.34 4.559,-4.59 9.336,-9 14.317,-13.219 -7.313,-5.671 -15.133,-10.769 -23.367,-15.332 M 457.441,313.789 c -6.195,0 -12.3,0.129 -18.296,0.371 -4.336,6.422 -8.325,13.059 -11.934,19.891 7.379,-0.528 14.93,-0.867 22.672,-1 2.859,-6.602 6.035,-13.024 9.5,-19.25 -0.613,-0.012 -1.227,-0.012 -1.84,-0.012 -0.031,0 -0.066,0 -0.102,0 m 23.86,0.59 c -3.781,6.07 -7.25,12.34 -10.375,18.801 7.012,0.203 14.168,0.566 21.461,1.097 2.402,-6.379 5.093,-12.586 8.054,-18.617 -6.48,-0.551 -12.859,-0.98 -19.14,-1.281 m -65.863,1.41 c -22.848,2.223 -44.153,6.266 -64,11.883 -25.411,7.187 -48.426,16.953 -69.192,28.773 -21.012,11.953 -39.707,25.993 -56.285,41.524 -7.152,6.699 -13.906,13.676 -20.289,20.883 16.601,-14.352 35.269,-27.262 56.203,-38.25 22.297,-11.715 47.133,-21.235 74.711,-28.039 20.687,-7.43 43.324,-12.977 68.113,-16.235 3.235,-7.043 6.824,-13.89 10.739,-20.539 m 1196.732,32.598 c -0.25,0.902 -0.5,1.808 -0.75,2.711 4.53,3.058 9.07,6.191 13.56,9.402 -1.4,-1.457 -2.84,-2.898 -4.31,-4.328 -2.72,-2.649 -5.56,-5.242 -8.5,-7.785 m -6.73,21.855 c -0.02,0.051 -0.04,0.102 -0.05,0.149 5.14,3.882 10.56,7.875 16.15,11.98 0.06,-0.168 0.12,-0.332 0.18,-0.5 -5.33,-3.969 -10.78,-7.848 -16.28,-11.629 m -6.51,19.289 c -0.18,1.938 0.24,3.907 1.22,5.629 6.13,10.688 15.7,20.879 27.22,31.668 7.48,6.985 15.81,14.168 24.56,21.606 4.6,3.898 9.31,7.867 14.08,11.914 -1.64,-8.641 -3.31,-16.504 -4.88,-23.516 -13.28,-11.121 -27.32,-21.648 -40.9,-31.621 -7.29,-5.367 -14.45,-10.578 -21.3,-15.68 M 198.922,458.266 c -4.52,2.672 -8.91,5.418 -13.176,8.246 -20.848,25.058 -36.957,52.941 -49.266,81.867 -9.3,21.859 -16.378,44.297 -21.621,66.449 -6.14,32.281 -8.625,62.567 -8.644,88.082 0,11.203 0.48,21.504 1.363,30.699 l 9.551,-0.918 -9.551,0.918 c 4.852,50.555 18.828,140.079 75.688,232.239 50.394,81.782 134.687,165.392 274.988,225.412 88.187,32.95 198.797,55.4 337.879,60.18 -8.914,-0.85 -17.692,-1.77 -26.363,-2.75 -96.977,-10.94 -179.184,-29.7 -248.856,-53.83 -35.34,-12.25 -67.453,-25.86 -96.656,-40.54 C 359.27,1121.66 308.711,1083.72 269.23,1043.95 154.871,928.707 132.992,797.332 126.68,731.777 v 0 c -0.817,-8.5 -1.278,-18.214 -1.278,-28.867 -0.004,-15.512 0.977,-32.996 3.227,-51.687 4.496,-37.41 14.07,-79.664 30.961,-120.692 10.277,-24.984 23.223,-49.484 39.332,-72.265 m 1486.328,0.531 c 1.26,6.695 2.51,13.832 3.7,21.371 1.64,1.461 3.28,2.937 4.9,4.418 -0.66,-3.879 -1.28,-7.313 -1.81,-10.281 -0.7,-3.887 -1.65,-7.696 -2.83,-11.442 -1.3,-1.363 -2.62,-2.718 -3.96,-4.066 m 30.07,38.156 c 0.48,3.098 0.96,6.36 1.44,9.777 2.25,2.336 4.45,4.696 6.61,7.071 -2.18,-5.731 -4.88,-11.34 -8.05,-16.848 m 24.62,6.586 c 4.15,10.039 7.03,20.602 8.24,31.691 0.41,3.711 0.9,8.18 1.41,13.34 2.53,4.282 4.82,8.602 6.83,12.965 1.95,4.242 3.65,8.531 5.05,12.86 2.75,8.46 4.4,17.093 4.75,25.918 0.36,8.761 0.87,21.457 0.87,37.394 0.01,57.973 -6.82,158.606 -52.72,261.871 -45.97,103.282 -130.51,209.282 -287.57,279.502 -83.88,37.46 -188.57,64.66 -319.18,75.33 -28.44,4.02 -58.13,7.35 -89.08,9.93 -59.153,4.93 -114.528,7.24 -166.38,7.24 -0.121,0 -0.265,0 -0.387,0 -5,0 -9.976,-0.03 -14.914,-0.06 -4.687,0.52 -9.336,1.02 -13.968,1.5 46.957,3.67 96.996,5.61 150.332,5.61 10.652,0 21.437,-0.08 32.357,-0.24 25.96,-0.37 51.07,-1.32 75.35,-2.83 145.59,-9.02 261.48,-37.77 353.69,-78.96 107.6,-48.03 182.85,-113.05 235.02,-182.76 104.39,-139.496 116.61,-296.863 116.64,-376.133 0,-14.859 -0.44,-27 -0.78,-35.684 -0.01,-0.21 -0.02,-0.421 -0.03,-0.632 -0.02,-0.637 -0.05,-1.254 -0.07,-1.852 -0.69,-17.18 -5.42,-33.391 -12.73,-48.531 -0.91,-1.895 -1.87,-3.77 -2.86,-5.629 -7.95,-14.899 -18.31,-28.785 -29.87,-41.84"
         style="fill:#aed3c5;fill-opacity:1;fill-rule:nonzero;stroke:none"
         id="path39" /><path
         d="m 1288.86,119.512 c -74.17,0.008 -148.82,7.629 -213.96,26.906 -25.25,7.492 -49.11,16.742 -70.94,28.051 -7.413,3.84 -14.593,7.91 -21.511,12.242 -1.652,1.027 -3.289,2.078 -4.91,3.141 -6.062,3.968 -11.918,8.136 -17.535,12.519 -2.664,2.07 -5.27,4.188 -7.828,6.359 -4.981,4.219 -9.758,8.629 -14.317,13.219 -3.972,4.012 -7.777,8.16 -11.406,12.449 -6.297,-7.726 -13.32,-14.75 -20.949,-21.078 -4.633,4.532 -9.012,9.211 -13.121,14.059 9.957,8.121 18.664,17.492 25.887,28.141 1.742,2.582 4.625,4.152 7.738,4.21 0.066,0 0.137,0 0.203,0 3.035,0 5.894,-1.429 7.707,-3.878 5.605,-7.563 11.832,-14.711 18.629,-21.461 4.508,-4.469 9.266,-8.77 14.262,-12.891 3.711,-3.059 7.55,-6.02 11.515,-8.891 5.547,-4.019 11.332,-7.847 17.348,-11.5 2.973,-1.8 5.998,-3.57 9.078,-5.281 6.81,-3.797 13.88,-7.379 21.19,-10.758 16.94,-7.832 35.17,-14.55 54.41,-20.25 62.58,-18.55 135.57,-26.121 208.36,-26.121 0.05,0 0.1,0 0.15,0 0.01,0 0.01,0 0.02,0 45.41,0 90.76,2.93 133.48,7.879 9.74,1.133 18.83,2.524 27.32,4.133 -0.86,-5.152 -2.01,-10.18 -3.49,-15.051 -0.56,-1.808 -1.15,-3.601 -1.8,-5.371 -6.34,-1.039 -12.94,-1.969 -19.82,-2.769 -43.41,-5.032 -89.46,-8.008 -135.71,-8.008 m 176.95,14.988 c 1.81,6.82 3.07,13.762 3.9,20.73 9.29,2.461 17.69,5.239 25.27,8.282 -5.56,-10.262 -13.4,-19.633 -24.51,-27.891 -1.53,-0.383 -3.09,-0.762 -4.66,-1.121 m 42.48,13.801 c 0.18,0.289 0.37,0.59 0.55,0.879 5.49,8.84 9.42,18.16 12.13,27.718 13.6,9.012 22.96,19.114 29.4,30.071 0.78,1.34 1.52,2.691 2.22,4.051 1.71,3.308 3.16,6.679 4.41,10.128 1.39,3.852 2.5,7.793 3.37,11.821 0.21,0.941 0.39,1.883 0.57,2.832 1.24,6.64 1.84,13.48 1.92,20.449 0.01,0.559 0.01,1.121 0.01,1.68 0.01,10.5 -1.15,21.261 -3,31.961 5.87,3.328 11.76,6.769 17.61,10.339 2.46,-12.46 4.22,-25.378 4.53,-38.402 0.03,-1.297 0.05,-2.598 0.05,-3.898 0,-5.45 -0.27,-10.91 -0.88,-16.36 -0.08,-0.699 -0.16,-1.41 -0.25,-2.109 -0.77,-6.031 -1.96,-12.031 -3.66,-17.961 -0.66,-2.289 -1.39,-4.578 -2.21,-6.84 -2.82,-7.871 -6.64,-15.539 -11.58,-22.84 -3.91,-5.769 -8.52,-11.308 -13.9,-16.531 -10.7,-10.379 -24.28,-19.461 -41.29,-26.988 m -744.786,20.07 c -4.242,0 -8.496,0.09 -12.766,0.27 -9.617,0.398 -19.3,1.238 -28.98,2.519 30.812,0.059 60.586,5.078 87.187,15.699 6.422,2.563 12.664,5.45 18.68,8.68 0.047,0.012 0.098,0.031 0.145,0.039 4.558,-5.437 9.39,-10.687 14.484,-15.769 -24.574,-7.731 -51.309,-11.438 -78.75,-11.438 m 98.746,18.828 c -5.148,4.77 -10.023,9.699 -14.613,14.781 2.109,0.801 4.191,1.641 6.25,2.52 8.035,3.398 15.664,7.32 22.824,11.738 4.148,-4.968 8.531,-9.758 13.137,-14.386 -5.848,-3.793 -11.957,-7.243 -18.285,-10.364 -3.055,-1.508 -6.161,-2.937 -9.313,-4.289 m -172.484,4.949 c -38.762,4.383 -78.371,16.661 -113.766,35.891 -11.695,8.473 -22.707,17.832 -32.816,28.051 -5.637,5.699 -10.996,11.66 -16.036,17.89 -3.304,4.09 -6.472,8.29 -9.496,12.61 -4.136,5.898 -8.004,12.019 -11.562,18.351 -1.977,3.508 -3.863,7.079 -5.649,10.719 -2.961,6.031 -5.652,12.238 -8.054,18.617 -1.047,2.782 -2.039,5.594 -2.977,8.442 -7.519,-0.633 -14.91,-1.117 -22.176,-1.457 -2.636,6.144 -4.972,12.449 -6.98,18.914 11.351,0.41 23.055,1.183 35.117,2.347 0.313,0.028 0.621,0.043 0.934,0.043 4.242,0 8.011,-2.793 9.207,-6.945 1.922,-6.687 4.187,-13.195 6.773,-19.519 2.57,-6.289 5.457,-12.399 8.637,-18.317 2,-3.726 4.113,-7.375 6.34,-10.945 3.828,-6.16 7.988,-12.102 12.441,-17.809 3.434,-4.402 7.039,-8.672 10.813,-12.812 5.414,-5.93 11.168,-11.59 17.218,-16.969 11.606,-10.309 24.309,-19.59 37.825,-27.801 1.504,-0.91 3.015,-1.808 4.535,-2.687 29.109,-16.922 61.707,-28.84 94.746,-35.371 -4.953,-0.571 -9.988,-0.993 -15.074,-1.243 m 865.984,117.5 c -0.38,1.614 -0.78,3.231 -1.18,4.832 0.06,0.04 0.13,0.079 0.19,0.129 5.34,3.504 10.97,7.094 16.8,10.789 0.47,-1.785 0.94,-3.585 1.4,-5.402 -5.66,-3.547 -11.42,-6.996 -17.21,-10.348 m -6.46,24.29 c -0.26,0.878 -0.51,1.753 -0.76,2.621 -0.77,2.703 -0.32,5.621 1.23,7.961 6.84,10.218 17.07,19.707 29.27,29.66 6.18,5.019 12.88,10.125 19.9,15.351 6.85,5.102 14.01,10.313 21.3,15.68 13.58,9.973 27.62,20.5 40.9,31.621 -2.36,-10.539 -4.52,-19.141 -6.13,-25.539 -0.11,-0.465 -0.23,-0.926 -0.35,-1.387 -5.99,-6.004 -12.49,-11.801 -19.32,-17.406 -4.68,-3.457 -9.29,-6.828 -13.79,-10.129 -5.59,-4.105 -11.01,-8.098 -16.15,-11.98 -0.65,-0.489 -1.29,-0.973 -1.93,-1.457 -0.19,-0.149 -0.39,-0.297 -0.58,-0.442 -9.59,-6.523 -19.32,-12.777 -28.82,-18.801 -8.52,-5.406 -16.86,-10.632 -24.77,-15.753 m -1108.243,6.699 c -5.859,0 -11.625,0.097 -17.309,0.289 -3.062,6.359 -5.8,12.883 -8.187,19.566 8.062,-0.426 16.324,-0.652 24.797,-0.668 1.843,-6.539 3.984,-12.926 6.406,-19.16 -1.887,-0.019 -3.762,-0.027 -5.633,-0.027 -0.023,0 -0.047,0 -0.074,0 m -38.918,1.508 c -23.391,1.859 -45.215,5.402 -65.543,10.418 -27.578,6.804 -52.414,16.324 -74.711,28.039 -20.934,10.988 -39.602,23.898 -56.203,38.25 -7.891,6.824 -15.317,13.968 -22.293,21.39 17.762,-14.289 37.816,-27.043 60.379,-37.793 25.039,-11.937 53.133,-21.398 84.578,-27.824 20.324,-5.867 42.426,-10.148 66.453,-12.555 2.133,-6.793 4.586,-13.437 7.34,-19.925 M 1683.14,447.984 c 0.7,3.461 1.41,7.071 2.11,10.813 1.34,1.348 2.66,2.703 3.96,4.066 -1.61,-5.082 -3.65,-10.039 -6.07,-14.879 m 22.91,4.801 c 2.1,5.84 3.75,11.879 4.87,18.129 1.17,6.481 2.75,15.27 4.4,26.039 3.17,5.508 5.87,11.117 8.05,16.848 2.19,5.777 3.85,11.676 4.91,17.707 0.34,1.922 0.61,3.855 0.82,5.808 0.03,0.254 0.06,0.512 0.09,0.774 1.81,16.586 5.05,46.785 5.05,85.902 0.01,69.449 -10.26,166.664 -56.78,263.578 -46.58,96.922 -129.1,193.77 -275.18,263.45 -72.09,34.37 -159.73,62.07 -266.17,79.62 -33.04,7.42 -67.89,13.98 -104.62,19.59 -64.408,9.86 -124.506,16.27 -180.595,19.65 -4.704,0.57 -9.387,1.11 -14.036,1.64 4.938,0.03 9.914,0.06 14.914,0.06 0.122,0 0.266,0 0.387,0 51.852,0 107.227,-2.31 166.38,-7.24 30.95,-2.58 60.64,-5.91 89.08,-9.93 122.28,-17.3 221.87,-47.43 302.92,-86.06 99.89,-47.6 171.54,-108.15 222.44,-173.041 101.83,-129.86 120.45,-276.293 120.45,-371.317 0,-24.082 -1.2,-44.922 -2.56,-61.351 -0.23,-2.871 -0.47,-5.606 -0.71,-8.2 -0.19,-2.046 -0.38,-4.003 -0.57,-5.871 -0.51,-5.16 -1,-9.629 -1.41,-13.34 -1.21,-11.089 -4.09,-21.652 -8.24,-31.691 -3.04,-7.332 -6.75,-14.387 -10.98,-21.156 -0.53,-0.844 -1.07,-1.684 -1.61,-2.516 -3.91,-6.015 -8.24,-11.82 -12.87,-17.437 -2.71,-3.282 -5.52,-6.492 -8.43,-9.645 M 185.746,466.512 c -4.574,3.031 -9.008,6.152 -13.297,9.351 -26.035,26.231 -45.551,56.395 -60.023,88.246 -4.656,10.25 -8.774,20.676 -12.403,31.192 C 87.5938,640.879 83,685.777 82.9727,723.688 c 0.0039,22.933 1.6914,43.332 4.4453,59.945 v 0 c 10.3633,62.523 39.195,184.883 147.254,291.477 58.633,57.87 140.387,110.8 254.496,147.1 74.488,19.65 162.875,31.36 267.926,31.38 21.203,0 43.082,-0.47 65.664,-1.46 -8.973,-0.16 -17.879,-0.39 -26.625,-0.69 -139.082,-4.78 -249.692,-27.23 -337.879,-60.18 C 365.883,1156.75 298.137,1110.72 248.148,1061.45 144.211,958.91 116.449,841.305 106.352,780.492 v 0 c -2.551,-15.363 -4.192,-34.828 -4.188,-56.804 -0.012,-32.36 3.543,-70.176 12.695,-108.86 5.243,-22.152 12.321,-44.59 21.621,-66.449 12.309,-28.926 28.418,-56.809 49.266,-81.867"
         style="fill:#90c5b4;fill-opacity:1;fill-rule:nonzero;stroke:none"
         id="path41" /><path
         d="m 1302.13,84.1797 c -85.89,0.0117 -176.87,9.1016 -256.05,32.5823 -35.41,10.527 -68.557,23.937 -97.771,40.84 -6.778,3.918 -13.336,8.027 -19.668,12.328 -6.614,4.492 -12.981,9.211 -19.067,14.14 -5.613,4.551 -11,9.301 -16.129,14.231 -1.215,1.168 -2.414,2.347 -3.597,3.551 -4.606,4.628 -8.989,9.418 -13.137,14.386 -2.844,3.41 -5.578,6.891 -8.195,10.461 -7.34,-7.847 -15.461,-14.808 -24.219,-20.929 -4.223,4.902 -8.18,9.941 -11.859,15.128 11.14,7.653 21.015,16.782 29.359,27.43 1.824,2.332 4.609,3.684 7.551,3.684 0.152,0 0.304,0 0.457,-0.012 3.109,-0.148 5.949,-1.789 7.629,-4.41 4.48,-7.031 9.48,-13.762 14.949,-20.211 4.109,-4.848 8.488,-9.527 13.121,-14.059 2.332,-2.281 4.723,-4.511 7.18,-6.711 5.113,-4.57 10.492,-8.98 16.125,-13.211 1.054,-0.789 2.121,-1.578 3.195,-2.359 6.324,-4.609 12.953,-9.019 19.859,-13.219 7.723,-4.699 15.805,-9.16 24.188,-13.371 23.035,-11.558 48.429,-21.269 75.489,-29.289 76.58,-22.738 165.96,-31.789 250.43,-31.789 0.05,0 0.11,0 0.16,0 19.07,0 37.88,0.457 56.24,1.309 34.19,1.59 60.76,6.851 81.19,14.511 -4.98,-9.66 -11.74,-18.441 -21.01,-26.1597 -17.17,-3.9024 -36.81,-6.461 -59.28,-7.5118 -18.66,-0.8789 -37.77,-1.3398 -57.14,-1.3398 m 150.83,19.6913 c 0.6,0.988 1.18,1.988 1.75,2.988 4.52,8.02 7.9,16.411 10.37,25 1.88,1.231 3.67,2.481 5.39,3.762 11.11,8.258 18.95,17.629 24.51,27.891 1.39,2.547 2.63,5.16 3.75,7.816 0.81,1.934 1.55,3.891 2.24,5.883 1.67,4.879 2.94,9.937 3.88,15.117 0.46,2.551 0.84,5.133 1.14,7.742 0.65,5.629 0.94,11.371 0.94,17.18 0,0.891 -0.01,1.77 -0.02,2.66 -0.01,0.762 -0.03,1.531 -0.05,2.301 -0.17,6.43 -0.68,12.91 -1.42,19.359 -0.65,5.711 -1.49,11.41 -2.43,17.032 1,0.57 2.01,1.136 3.03,1.707 4.72,2.66 9.64,5.363 14.72,8.121 1.33,-7.25 2.55,-14.75 3.48,-22.391 0.77,-6.367 1.36,-12.84 1.65,-19.348 0.04,-0.82 0.07,-1.632 0.1,-2.453 0.08,-2.316 0.13,-4.648 0.13,-6.988 0,-4.25 -0.14,-8.52 -0.45,-12.789 -0.16,-2.231 -0.37,-4.473 -0.63,-6.699 -0.82,-7.024 -2.13,-14 -4.07,-20.864 -2.71,-9.558 -6.64,-18.878 -12.13,-27.718 -0.18,-0.289 -0.37,-0.59 -0.55,-0.879 -11.44,-18.031 -29.41,-33.473 -55.33,-44.43 M 721.277,171.16 c -10.582,0.012 -21.293,0.602 -32.039,1.75 33.633,1.461 65.696,9.512 92.91,25.199 6.778,1.852 13.352,4.039 19.684,6.571 4.836,1.929 9.527,4.058 14.063,6.379 3.703,-5.297 7.664,-10.457 11.851,-15.45 -0.039,-0.019 -0.078,-0.05 -0.121,-0.07 -6.016,-3.23 -12.258,-6.117 -18.68,-8.68 -26.601,-10.621 -56.375,-15.64 -87.187,-15.699 -0.16,0 -0.32,0 -0.481,0 m -43.672,20.692 c -43.808,0 -90.992,11.66 -133.5,32.957 -13.21,8.703 -25.718,18.421 -37.257,29.121 -6.614,6.14 -12.91,12.59 -18.836,19.359 -3.27,3.742 -6.426,7.57 -9.465,11.5 -4.817,6.223 -9.328,12.691 -13.5,19.391 -1.965,3.148 -3.856,6.359 -5.664,9.621 -3.465,6.226 -6.641,12.648 -9.5,19.25 -1.09,2.512 -2.133,5.051 -3.129,7.613 -2.422,6.234 -4.563,12.621 -6.406,19.16 -0.493,1.746 -0.961,3.5 -1.41,5.266 -3.145,-0.047 -6.266,-0.07 -9.364,-0.07 -5.285,0 -10.5,0.07 -15.644,0.203 -2.078,6.316 -3.844,12.781 -5.278,19.367 6.836,-0.254 13.809,-0.383 20.922,-0.383 5.473,0 11.031,0.078 16.668,0.231 0.09,0.003 0.18,0.003 0.27,0.003 4.519,0 8.422,-3.14 9.375,-7.582 1.215,-5.671 2.676,-11.234 4.367,-16.683 2.008,-6.465 4.344,-12.77 6.98,-18.914 1.172,-2.727 2.403,-5.422 3.692,-8.082 3.125,-6.461 6.594,-12.731 10.375,-18.801 2.172,-3.488 4.441,-6.91 6.816,-10.27 4.555,-6.449 9.465,-12.648 14.703,-18.597 3.684,-4.192 7.532,-8.25 11.524,-12.192 6.418,-6.332 13.215,-12.34 20.344,-18.011 6.695,-5.329 13.679,-10.36 20.914,-15.09 6.609,-4.328 13.421,-8.391 20.398,-12.18 35.395,-19.23 75.004,-31.508 113.766,-35.891 -3.961,-0.199 -7.957,-0.289 -11.985,-0.296 -0.058,0 -0.117,0 -0.176,0 m 821.625,86.636 c -0.53,2.543 -1.06,5.043 -1.59,7.512 -0.59,2.75 0.06,5.629 1.77,7.859 7.54,9.743 18.42,18.52 31.31,27.637 5.82,4.098 12.05,8.231 18.57,12.442 7.91,5.121 16.25,10.347 24.77,15.753 9.5,6.024 19.23,12.278 28.82,18.801 0.85,0.582 1.7,1.164 2.56,1.75 5.5,3.781 10.95,7.66 16.28,11.629 4.65,3.469 9.2,7.008 13.61,10.629 6.83,5.605 13.33,11.402 19.32,17.406 -4.91,-18.328 -15.41,-34.593 -29.67,-49.406 -4.49,-3.211 -9.03,-6.344 -13.56,-9.402 -13.6,-9.168 -27.21,-17.676 -39.86,-25.7 -5.83,-3.695 -11.46,-7.285 -16.8,-10.789 -0.06,-0.05 -0.13,-0.089 -0.19,-0.129 -12.11,-7.91 -22.67,-15.492 -30.46,-22.41 -8.57,-4.64 -16.94,-9.148 -24.88,-13.582 M 393.563,366.129 c -23.188,1.461 -44.911,4.344 -65.227,8.496 -31.445,6.426 -59.539,15.887 -84.578,27.824 -22.563,10.75 -42.617,23.504 -60.379,37.793 -8.336,6.703 -16.168,13.746 -23.516,21.074 16.258,-12.253 34.356,-23.351 54.45,-33 34.71,-16.683 75.328,-29.058 122.652,-35.839 16.281,-3.125 33.558,-5.422 51.879,-6.789 1.273,-6.645 2.855,-13.168 4.719,-19.559 m 1278.147,33.797 c 0.7,2.199 1.34,4.433 1.91,6.695 2.33,9.32 5.87,23.399 9.52,41.363 2.42,4.84 4.46,9.797 6.07,14.879 1.18,3.746 2.13,7.555 2.83,11.442 0.53,2.968 1.15,6.402 1.81,10.281 0.81,4.648 1.69,9.934 2.58,15.801 3.98,25.972 8.36,63.386 8.36,107.926 -0.01,98.679 -21.49,231.55 -116.17,351 -78.91,99.507 -209.01,190.437 -422.02,244.307 -38.05,11.89 -78.72,22.76 -122.17,32.47 -69.176,15.46 -133.571,26.54 -193.535,33.79 56.089,-3.38 116.187,-9.79 180.595,-19.65 36.73,-5.61 71.58,-12.17 104.62,-19.59 236.98,-53.23 381.37,-150.62 467.55,-259.41 98.21,-123.925 120.33,-261.589 120.32,-362.917 0,-31.418 -2.12,-59.418 -4.77,-82.485 -0.15,-1.262 -0.3,-2.508 -0.44,-3.734 -0.65,-5.422 -1.33,-10.547 -2.01,-15.364 -0.48,-3.417 -0.96,-6.679 -1.44,-9.777 -1.65,-10.769 -3.23,-19.558 -4.4,-26.039 -1.12,-6.25 -2.77,-12.289 -4.87,-18.129 -4.3,-11.957 -10.51,-23.07 -17.99,-33.383 -1.94,-2.668 -3.96,-5.285 -6.06,-7.855 -3.25,-3.988 -6.69,-7.859 -10.29,-11.621 M 172.449,475.863 c -40.433,30.176 -68.531,67.77 -87.7576,108.422 -1.668,3.531 -3.2656,7.086 -4.7969,10.66 -16.3867,49.977 -22.2773,101.063 -22.2968,145.614 0.0078,36.742 4.0117,69.066 9.707,93.089 v 0 c 13.8125,58.188 47.6013,168.222 147.7693,263.652 66.875,63.76 163.192,120.65 301.887,151.39 49.035,8.2 103.414,12.79 163.73,12.81 51.68,0 107.719,-3.38 168.473,-10.74 -8.906,0.53 -17.711,0.99 -26.406,1.37 -22.582,0.99 -44.461,1.46 -65.664,1.46 -105.051,-0.02 -193.438,-11.73 -267.926,-31.38 C 370.734,1190.98 287.453,1139.69 228.313,1083.4 131.992,991.641 99.4141,885.797 85.9766,829.219 l -9.336,2.215 9.336,-2.219 c -5.2891,-22.238 -9.1993,-53.344 -9.1914,-88.656 -0.0118,-44.586 6.2109,-95.911 23.2378,-145.258 3.629,-10.516 7.747,-20.942 12.403,-31.192 14.472,-31.851 33.988,-62.015 60.023,-88.246"
         style="fill:#73b8a5;fill-opacity:1;fill-rule:nonzero;stroke:none"
         id="path43" /><path
         d="m 1303.43,43.4414 c -3.1,0 -6.25,0.0391 -9.46,0.0977 -139.17,3.1015 -301.767,29.7304 -407.138,100.0629 -3.871,2.589 -7.664,5.238 -11.379,7.957 -3.41,2.492 -6.754,5.043 -10.019,7.64 -3.719,2.961 -7.344,5.992 -10.868,9.082 -4.253,3.739 -8.359,7.578 -12.312,11.528 -5.094,5.082 -9.926,10.332 -14.484,15.769 -0.008,0.012 -0.016,0.024 -0.024,0.031 -4.187,4.993 -8.148,10.153 -11.851,15.45 -1.836,2.632 -3.614,5.293 -5.325,8 -8.675,-8.098 -18.207,-15.071 -28.422,-20.95 -27.214,-15.687 -59.277,-23.738 -92.91,-25.199 -3.777,-0.16 -7.574,-0.25 -11.386,-0.25 -0.024,0 -0.047,0 -0.071,0 -62.426,0.051 -129.613,21.59 -184.164,60.031 -9.996,7.039 -19.57,14.68 -28.609,22.868 -7.762,7.031 -15.117,14.472 -22.004,22.3 -2.629,2.993 -5.191,6.051 -7.68,9.153 -5.5,6.867 -10.636,14.008 -15.371,21.418 -1.547,2.422 -3.055,4.879 -4.515,7.359 -3.915,6.649 -7.504,13.496 -10.739,20.539 -0.883,1.926 -1.738,3.863 -2.57,5.817 -2.754,6.488 -5.207,13.132 -7.34,19.925 -0.422,1.348 -0.828,2.7 -1.226,4.059 -1.864,6.391 -3.446,12.914 -4.719,19.559 -0.114,0.601 -0.227,1.207 -0.34,1.812 -18,0.953 -35.172,2.633 -51.539,4.977 -47.324,6.781 -87.942,19.156 -122.652,35.839 -20.094,9.649 -38.192,20.747 -54.45,33 -22.937,17.293 -42.203,36.887 -58.218,57.981 -54.7583,72.16 -71.6958,161.137 -71.7192,236.945 0.0156,51.231 7.7265,96.516 17.3086,127.406 v 0 c 16.8594,54.278 54.7456,153.702 149.0386,239.542 94.223,85.86 244.676,157.5 484.047,157.5 0.118,0 0.254,0 0.371,0 35.993,0 74,-1.62 114.137,-5.03 4.649,-0.39 9.328,-0.81 14.035,-1.25 4.649,-0.44 9.325,-0.91 14.028,-1.39 4.632,-0.48 9.281,-0.98 13.968,-1.5 4.649,-0.53 9.332,-1.07 14.036,-1.64 59.964,-7.25 124.359,-18.33 193.535,-33.79 43.45,-9.71 84.12,-20.58 122.17,-32.47 204.33,-63.87 333.2,-157.25 412.66,-258.616 94.29,-120.223 118.52,-250.941 118.49,-354.606 0,-35.281 -2.79,-67.496 -6.58,-95.191 -0.71,-5.176 -1.46,-10.187 -2.22,-15.039 -1.19,-7.539 -2.44,-14.676 -3.7,-21.371 -0.7,-3.742 -1.41,-7.352 -2.11,-10.813 -3.65,-17.964 -7.19,-32.043 -9.52,-41.363 -0.57,-2.262 -1.21,-4.496 -1.91,-6.695 -0.92,-2.906 -1.97,-5.758 -3.11,-8.555 -5.22,-12.734 -12.64,-24.336 -21.47,-34.914 -4.21,-5.047 -8.75,-9.871 -13.55,-14.5 -5.26,-5.07 -10.83,-9.902 -16.62,-14.531 -4.27,-3.414 -8.67,-6.715 -13.15,-9.914 -8.53,-6.094 -17.39,-11.832 -26.33,-17.282 -5.85,-3.57 -11.74,-7.011 -17.61,-10.339 -13.44,-7.653 -26.74,-14.731 -39.11,-21.461 -5.08,-2.758 -10,-5.461 -14.72,-8.121 -1.02,-0.571 -2.03,-1.137 -3.03,-1.707 -15.65,-8.891 -28.67,-17.391 -36.57,-25.043 0.01,-0.047 0.02,-0.11 0.03,-0.161 0.86,-6.136 1.7,-12.519 2.42,-19.078 0.08,-0.679 0.15,-1.359 0.23,-2.05 0.66,-6.282 1.21,-12.711 1.54,-19.231 0.13,-2.437 0.23,-4.898 0.29,-7.359 0.06,-2.192 0.09,-4.391 0.09,-6.602 0,-4.289 -0.12,-8.598 -0.37,-12.918 -0.22,-3.64 -0.53,-7.289 -0.96,-10.93 -0.83,-6.968 -2.09,-13.91 -3.9,-20.73 -0.24,-0.879 -0.48,-1.762 -0.73,-2.641 -2.47,-8.589 -5.85,-16.98 -10.37,-25 -0.57,-1 -1.15,-2 -1.75,-2.988 -12.82,-21.0897 -34.11,-38.703 -65.99,-49.0897 -22.26,-7.3125 -49.68,-11.3321 -83.54,-11.3399 M 908.77,152.32 c 30.793,-18.91 66.656,-34.468 105.41,-46.961 87.16,-28.1207 188.88,-40.6871 280.19,-42.6285 3.08,-0.0703 6.1,-0.1016 9.06,-0.1016 0.03,0 0.06,0 0.09,0 48.49,0 81.32,8.7422 103.13,21.9297 4.37,2.6602 8.32,5.4805 11.9,8.4727 9.27,7.7187 16.03,16.4997 21.01,26.1597 1.84,3.579 3.44,7.289 4.83,11.098 0.65,1.77 1.24,3.563 1.8,5.371 1.48,4.871 2.63,9.899 3.49,15.051 0.68,4.039 1.18,8.148 1.53,12.309 0.44,5.289 0.64,10.66 0.64,16.058 0,1.152 -0.01,2.301 -0.02,3.453 -0.04,2.391 -0.11,4.789 -0.22,7.18 -0.28,6.437 -0.79,12.867 -1.44,19.219 -0.07,0.66 -0.14,1.32 -0.21,1.992 -0.7,6.469 -1.52,12.859 -2.39,19.058 -0.26,1.84 -0.52,3.661 -0.78,5.461 -0.4,2.778 0.45,5.61 2.31,7.719 8.23,9.262 19.76,17.34 33.33,25.61 5.31,3.218 10.94,6.449 16.8,9.718 7.94,4.434 16.31,8.942 24.88,13.582 1.26,0.68 2.52,1.371 3.79,2.059 9.18,4.973 18.55,10.133 27.85,15.519 5.79,3.352 11.55,6.801 17.21,10.348 14,8.774 27.41,18.176 39.21,28.391 2.94,2.543 5.78,5.136 8.5,7.785 1.47,1.43 2.91,2.871 4.31,4.328 14.26,14.813 24.76,31.078 29.67,49.406 0.12,0.461 0.24,0.922 0.35,1.387 1.61,6.398 3.77,15 6.13,25.539 1.57,7.012 3.24,14.875 4.88,23.516 0.64,3.347 1.28,6.824 1.91,10.402 5.64,32.086 10.64,73.125 10.64,119.648 -0.02,100.805 -23.41,226.707 -114.4,342.766 -91.01,116.036 -250.12,222.956 -523.92,284.196 -68.381,15.29 -131.963,26.23 -191.076,33.4 -60.754,7.36 -116.793,10.74 -168.473,10.74 -60.316,-0.02 -114.695,-4.61 -163.73,-12.81 C 374.246,1224.82 276.703,1170.38 209.191,1109 118.508,1026.45 81.957,930.738 65.5586,877.957 v 0 C 56.6445,849.316 49.1016,805.492 49.1172,756.242 49.1055,704.953 57.2539,647.746 79.8945,594.945 c 1.5313,-3.574 3.1289,-7.129 4.7969,-10.66 19.2266,-40.652 47.3246,-78.246 87.7576,-108.422 4.289,-3.199 8.723,-6.32 13.297,-9.351 4.266,-2.828 8.656,-5.574 13.176,-8.246 4.031,-2.379 8.164,-4.696 12.398,-6.942 3.594,-1.906 7.274,-3.769 11.02,-5.574 0.094,-0.047 0.187,-0.094 0.281,-0.137 45.742,-21.98 103,-36.383 174.488,-39.304 4.633,-0.192 8.446,-3.633 9.106,-8.219 0.656,-4.559 1.473,-9.059 2.437,-13.5 1.434,-6.586 3.2,-13.051 5.278,-19.367 0.519,-1.586 1.062,-3.16 1.621,-4.731 2.387,-6.683 5.125,-13.207 8.187,-19.566 1.117,-2.317 2.274,-4.602 3.473,-6.875 3.609,-6.832 7.598,-13.469 11.934,-19.891 2.015,-2.988 4.113,-5.941 6.273,-8.84 5.25,-7.031 10.918,-13.789 16.953,-20.261 3.496,-3.739 7.117,-7.391 10.856,-10.938 7.519,-7.152 15.507,-13.902 23.882,-20.223 2.493,-1.878 5.016,-3.73 7.571,-5.527 12.476,-8.812 25.703,-16.691 39.425,-23.562 42.508,-21.297 89.692,-32.957 133.5,-32.957 0.059,0 0.118,0 0.176,0 4.028,0.007 8.024,0.097 11.985,0.296 5.086,0.25 10.121,0.672 15.074,1.243 4.668,0.55 9.265,1.238 13.793,2.07 4.578,0.848 9.078,1.84 13.496,2.988 4.832,1.25 9.566,2.692 14.184,4.313 23.074,8.097 43.277,20.789 59.039,38.347 1.832,2.032 4.425,3.172 7.132,3.172 0.368,0 0.739,-0.019 1.11,-0.062 3.09,-0.36 5.812,-2.188 7.304,-4.918 3.469,-6.332 7.321,-12.461 11.54,-18.403 3.679,-5.187 7.636,-10.226 11.859,-15.128 1.094,-1.27 2.211,-2.54 3.34,-3.79 4.59,-5.082 9.465,-10.011 14.613,-14.781 5.109,-4.738 10.492,-9.328 16.125,-13.769 4.867,-3.84 9.93,-7.571 15.164,-11.192 1.313,-0.898 2.637,-1.797 3.969,-2.699 3.672,-2.461 7.43,-4.859 11.262,-7.219"
         style="fill:#57ab97;fill-opacity:1;fill-rule:nonzero;stroke:none"
         id="path45" /><path
         d="m 755.621,226.969 -8.703,-4.039 c 16.719,-36.02 43.828,-66.758 77.656,-92.84 C 875.352,90.9688 941.332,62.1094 1012.13,41.2891 1082.92,20.5 1158.56,7.82813 1228.67,1.62891 1241.1,0.53125 1252.75,0 1263.66,0 c 31.94,0 57.66,4.53125 78.38,12.7188 31.11,12.2109 50.6,33.1523 61.37,57.0312 10.86,23.8789 13.6,50.359 13.62,75.43 0,14.41 -0.93,28.379 -1.91,41.16 l -9.56,-0.731 6.75,-6.82 c 8.42,8.473 24.9,17.742 45,27.281 30.2,14.461 68.52,30.121 102.54,51.121 17.01,10.52 32.99,22.399 46.33,36.368 13.33,13.953 24.05,30.078 30.1,48.796 10.21,31.606 38.25,118.258 38.25,227.817 0.03,104.187 -25.45,229.57 -115.75,347.664 -90.27,118.114 -244.88,228.434 -501.43,304.064 -173.745,51.24 -318.62,72.17 -439.561,72.17 -211.625,0.07 -350.066,-64.36 -439.898,-141.95 C 88.0313,1074.59 46.7617,984.359 27.1953,933.625 12.9727,896.664 0.0273438,838.125 0,772.652 v 0 C 0.0078125,698.398 16.7852,615.082 68.8867,546.184 120.961,477.242 208.332,423.832 345.902,409.059 l 1.032,9.539 -9.567,-0.735 c 5.602,-73.004 47.649,-134.332 103.778,-177.133 56.214,-42.832 126.738,-67.699 191.859,-67.75 49.156,-0.019 95.644,14.379 129.309,47.11 l -6.692,6.879 -8.703,-4.039 8.703,4.039 -6.691,6.871 c -29.188,-28.41 -70.352,-41.649 -115.926,-41.668 -60.207,-0.051 -127.395,23.457 -180.223,63.816 -52.91,40.403 -91.234,97.078 -96.281,163.34 -0.352,4.621 -3.93,8.309 -8.535,8.809 -133.699,14.547 -214.996,65.301 -263.7775,129.629 -48.75,64.363 -65.0078,143.41 -65,214.886 -0.0273,62.86 12.6484,119.746 25.9141,154.071 C 64.1289,976.07 103.973,1063 190.43,1137.59 c 86.484,74.54 219.562,137.23 427.359,137.29 118.719,0 261.801,-20.56 434.131,-71.39 253.79,-74.86 404.32,-183.12 491.62,-297.306 87.27,-114.207 111.77,-234.84 111.8,-336.012 -0.01,-106.395 -27.23,-190.734 -37.32,-221.914 -6.65,-20.578 -20.32,-38.02 -38.41,-53.367 -27.09,-23.02 -63.83,-40.77 -97.86,-56.371 -17.02,-7.821 -33.36,-15.129 -47.6,-22.52 -14.25,-7.422 -26.43,-14.801 -35.35,-23.578 -1.99,-1.981 -3.02,-4.742 -2.81,-7.543 0.97,-12.641 1.85,-26.117 1.85,-39.699 0.04,-31.621 -4.93,-63.2191 -23.25,-86.1995 -9.18,-11.5586 -21.72,-21.3203 -39.61,-28.4219 -17.88,-7.0781 -41.18,-11.3789 -71.32,-11.3672 -10.29,0 -21.37,0.5 -33.3,1.5469 -92.04,8.1328 -193.86,27.6914 -279.942,61.9609 -43.047,17.1289 -82.137,37.9218 -114.129,62.5898 -32.008,24.68 -56.855,53.152 -71.965,85.711 -1.308,2.828 -3.902,4.84 -6.965,5.398 -3.058,0.571 -6.199,-0.386 -8.429,-2.558 l 6.691,-6.871"
         style="fill:#3b9f8b;fill-opacity:1;fill-rule:nonzero;stroke:none"
         id="path47" /><path
         d="M 960,457.5 H 537.012 V 880.492 H 960 V 457.5"
         style="fill:#222e54;fill-opacity:1;fill-rule:nonzero;stroke:none"
         id="path49" /><path
         d="m 960,457.5 v 5 H 542.012 V 875.492 H 955 V 457.5 h 5 v 5 -5 h 5 V 885.492 H 532.012 V 452.5 H 965 v 5 h -5"
         style="fill:#222f55;fill-opacity:1;fill-rule:nonzero;stroke:none"
         id="path51" /><path
         d="M 1412.36,457.5 H 989.371 V 880.492 H 1412.36 V 457.5"
         style="fill:#222e54;fill-opacity:1;fill-rule:nonzero;stroke:none"
         id="path53" /><path
         d="m 1412.36,457.5 v 5 H 994.371 V 875.492 H 1407.36 V 457.5 h 5 v 5 -5 h 5 V 885.492 H 984.371 V 452.5 h 432.989 v 5 h -5"
         style="fill:#222f55;fill-opacity:1;fill-rule:nonzero;stroke:none"
         id="path55" /><path
         d="m 1864.72,457.5 h -422.99 v 422.992 h 422.99 V 457.5"
         style="fill:#222e54;fill-opacity:1;fill-rule:nonzero;stroke:none"
         id="path57" /><path
         d="m 1864.72,457.5 v 5 h -417.99 v 412.992 h 412.99 V 457.5 h 5 v 5 -5 h 5 V 885.492 H 1436.73 V 452.5 h 432.99 v 5 h -5"
         style="fill:#222f55;fill-opacity:1;fill-rule:nonzero;stroke:none"
         id="path59" /><path
         d="m 803.852,555.039 v 87.125 h -97.664 v -87.125 h -44.024 v 206.813 h 44.024 v -81.239 h 97.664 v 81.239 h 44.347 V 555.039 h -44.347"
         style="fill:#ffffff;fill-opacity:1;fill-rule:nonzero;stroke:none"
         id="path61" /><path
         d="m 1244.08,555.039 -98.6,134.879 V 555.039 h -44.03 v 206.813 h 45.27 l 95.81,-129.914 v 129.914 h 44.02 V 555.039 h -42.47"
         style="fill:#ffffff;fill-opacity:1;fill-rule:nonzero;stroke:none"
         id="path63" /><path
         d="m 1685.11,695.188 c 0,17.363 -13.34,27.906 -30.7,27.906 h -46.5 v -55.5 h 46.5 c 17.36,0 30.7,10.539 30.7,27.594 z M 1563.88,555.039 v 206.813 h 96.74 c 44.95,0 69.45,-30.391 69.45,-66.664 0,-35.965 -24.8,-66.352 -69.45,-66.352 h -52.71 v -73.797 h -44.03"
         style="fill:#ffffff;fill-opacity:1;fill-rule:nonzero;stroke:none"
         id="path65" /><path
         d="m 2318.78,456.801 h -423.69 v 423.691 h 423.69 V 456.801"
         style="fill:#ec008c;fill-opacity:1;fill-rule:nonzero;stroke:none"
         id="path67" /><path
         d="m 2128.36,726.496 c -7.22,-24.398 -13.99,-47.254 -20.77,-70.101 -3.67,-12.36 -7.33,-24.711 -11.05,-37.051 -2.22,-7.375 -6.31,-11.149 -12.26,-11.473 -6.13,-0.32 -12.13,3.734 -14.83,10.492 -8.21,20.453 -16.3,40.961 -24.44,61.438 -0.96,2.418 -2.02,4.793 -3.55,8.41 -4.92,-11.793 -9.39,-22.473 -13.8,-33.172 -4,-9.668 -7.16,-11.922 -17.33,-11.937 -18.35,-0.028 -36.7,-0.079 -55.05,0.023 -10.04,0.055 -15.63,5.188 -15.57,13.898 0.05,7.915 5.19,13.141 13.43,13.204 15.64,0.128 31.28,0.234 46.92,-0.047 4.28,-0.075 6.11,1.3 7.66,5.234 6.81,17.211 14,34.266 21.07,51.375 3.14,7.617 7.48,11.246 13.57,10.902 7.2,-0.394 10.85,-4.949 13.33,-11.312 8.09,-20.707 16.45,-41.313 25.34,-63.531 1.23,3.586 2.07,5.754 2.73,7.968 10.84,36.68 21.65,73.372 32.49,110.051 2.54,8.621 7.05,12.528 14.16,12.477 7.29,-0.059 11.49,-3.934 13.61,-12.809 12.45,-52.168 24.86,-104.347 37.31,-156.519 0.42,-1.786 1.02,-3.532 1.95,-6.727 3.38,14.473 6.42,27.508 9.45,40.555 2.1,9.043 6.11,12.398 15.2,12.418 19.81,0.039 39.62,0.039 59.43,-0.004 8.8,-0.02 14.19,-4.93 14.42,-12.945 0.25,-8.145 -5.27,-14.036 -14.07,-14.18 -14.38,-0.238 -28.79,-0.414 -43.16,0.125 -6.14,0.23 -8.13,-2.051 -9.39,-7.602 -6.02,-26.562 -12.43,-53.027 -18.74,-79.519 -1.85,-7.813 -6.41,-12.055 -12.94,-12.18 -6.69,-0.137 -11.7,4.141 -13.64,12.168 -13.23,54.762 -26.39,109.539 -39.59,164.313 -0.37,1.539 -0.94,3.031 -1.89,6.058"
         style="fill:#ffffff;fill-opacity:1;fill-rule:nonzero;stroke:none"
         id="path69" /><path
         d="M 2592.71,728.289 V 869.25 h 99.76 v -26.422 h -69.75 v -29.582 h 68.26 v -26.418 h -68.26 v -32.125 h 69.75 v -26.414 h -99.76"
         style="fill:#ec008c;fill-opacity:1;fill-rule:nonzero;stroke:none"
         id="path71" /><path
         d="M 2715.93,728.289 V 869.25 h 99.76 v -26.422 h -69.75 v -29.582 h 68.26 v -26.418 h -68.26 v -32.125 h 69.75 v -26.414 h -99.76"
         style="fill:#ec008c;fill-opacity:1;fill-rule:nonzero;stroke:none"
         id="path73" /><path
         d="m 2832.41,798.664 c 0,44.59 33.81,72.91 75.23,72.91 29.16,0 47.55,-14.793 58.12,-31.488 l -24.73,-13.527 c -6.55,9.933 -18.59,18.386 -33.39,18.386 -25.78,0 -44.38,-19.656 -44.38,-46.281 0,-26.629 18.6,-46.285 44.38,-46.285 12.47,0 24.09,5.492 29.8,10.777 v 16.91 h -37.2 v 26.207 h 67.21 v -54.101 c -14.37,-16.067 -34.45,-26.418 -59.81,-26.418 -41.42,0 -75.23,28.531 -75.23,72.91"
         style="fill:#ec008c;fill-opacity:1;fill-rule:nonzero;stroke:none"
         id="path75" /><path
         d="m 2499.88,584.836 c 0,8.867 -6.35,16.055 -17.97,16.055 h -38.89 v -32.129 h 38.89 c 11.2,0 17.97,5.918 17.97,16.074 z m -2.76,57.269 c 0,8.665 -6.33,14.793 -16.48,14.793 h -37.62 v -29.585 h 37.62 c 10.15,0 16.48,5.707 16.48,14.792 z m -84.11,-99.75 v 140.961 h 74.18 c 26.85,0 40.58,-17.117 40.58,-35.925 0,-17.543 -10.99,-29.59 -24.31,-32.336 15.23,-2.325 27.05,-16.918 27.05,-34.457 0,-21.348 -13.94,-38.243 -40.99,-38.243 h -76.51"
         style="fill:#ec008c;fill-opacity:1;fill-rule:nonzero;stroke:none"
         id="path77" /><path
         d="m 2543.76,612.73 c 0,43.536 32.76,72.911 75.24,72.911 30.85,0 48.82,-16.7 58.75,-34.446 l -25.78,-12.683 c -5.92,11.414 -18.61,20.5 -32.97,20.5 -25.78,0 -44.39,-19.653 -44.39,-46.282 0,-26.632 18.61,-46.292 44.39,-46.292 14.36,0 27.05,9.093 32.97,20.507 l 25.78,-12.468 c -9.93,-17.551 -27.9,-34.661 -58.75,-34.661 -42.48,0 -75.24,29.59 -75.24,72.914"
         style="fill:#ec008c;fill-opacity:1;fill-rule:nonzero;stroke:none"
         id="path79" /><path
         d="m 2703.45,542.355 v 140.961 h 30.01 V 542.355 h -30.01"
         style="fill:#ec008c;fill-opacity:1;fill-rule:nonzero;stroke:none"
         id="path81" /><path
         d="m 2535.59,728.188 v 101.644 l -39.74,-101.644 h -13.09 l -39.74,101.644 V 728.188 h -30.01 v 140.957 h 42.06 l 34.24,-88.125 34.23,88.125 h 42.27 V 728.188 h -30.22"
         style="fill:#ec008c;fill-opacity:1;fill-rule:nonzero;stroke:none"
         id="path83" /></g></g></svg>
